# xmcd CD database file
#
# Track frame offsets:
#	150
#	24894
#	45814
#	70330
#	92349
#	114798
#	140190
#	163256
#	186828
#	206790
#	228809
#	254855
#
# Disc length: 3711 seconds
#
# Revision: 0
# Processed by: cddbd v1.5.2PL0 Copyright (c) Steve Scherf et al.
# Submitted via: CDex 1.51
#
DISCID=9f0e7d0c
DTITLE=Bogdan Mizerski - Owo tu¿ tu¿
DYEAR=2009
DGENRE=Jazz
TTITLE0=I Stacja Arcopici
TTITLE1=II Stacja Arcopici
TTITLE2=III Stacja Arcopici
TTITLE3=IV Stacja Arcopici
TTITLE4=V Stacja Arcopici
TTITLE5=VI Stacja Arcopici
TTITLE6=VII Stacja Arcopici
TTITLE7=VIII Stacja Arcopici
TTITLE8=IX Stacja Arcopici
TTITLE9=X Stacja Arcopici
TTITLE10=XI Stacja Arcopici
TTITLE11=XII Stacja Arcopici
EXTD=YEAR: 2009
EXTT0=
EXTT1=
EXTT2=
EXTT3=
EXTT4=
EXTT5=
EXTT6=
EXTT7=
EXTT8=
EXTT9=
EXTT10=
EXTT11=
PLAYORDER=
